<?xml version="1.0" standalone="no"?>
<!DOCTYPE svg PUBLIC "-//W3C//DTD SVG 20010904//EN"
 "http://www.w3.org/TR/2001/REC-SVG-20010904/DTD/svg10.dtd">
<svg version="1.0" xmlns="http://www.w3.org/2000/svg"
 width="1280.000000pt" height="491.000000pt" viewBox="0 0 1280.000000 491.000000"
 preserveAspectRatio="xMidYMid meet">
<metadata>
Created by potrace 1.16, written by Peter Selinger 2001-2019
</metadata>
<g transform="translate(0.000000,491.000000) scale(0.100000,-0.100000)"
fill="#000000" stroke="none">
<path d="M1810 4280 l0 -590 -354 0 c-389 0 -459 -7 -618 -60 -313 -105 -577
-341 -717 -641 -155 -333 -148 -739 19 -1067 174 -340 491 -577 869 -647 122
-22 338 -20 462 5 523 107 914 534 968 1058 6 57 12 604 15 1315 l4 1217 -324
0 -324 0 0 -590z m-3 -1562 c-5 -363 -8 -384 -68 -508 -43 -87 -160 -203 -250
-247 -186 -91 -401 -81 -568 27 -117 76 -200 182 -242 312 -35 107 -33 253 6
358 71 192 209 320 398 370 63 17 112 19 401 19 l328 1 -5 -332z"/>
<path d="M8675 3674 c-499 -89 -894 -488 -982 -989 -24 -138 -14 -389 21 -517
59 -220 159 -393 320 -554 159 -160 332 -260 555 -321 90 -25 109 -27 306 -27
195 0 217 2 305 26 221 60 396 161 556 322 260 260 383 594 353 966 -43 549
-458 1001 -1003 1095 -110 19 -323 18 -431 -1z m386 -653 c169 -53 313 -199
370 -373 33 -100 33 -242 1 -345 -46 -148 -165 -283 -307 -348 -224 -104 -457
-62 -636 115 -118 116 -179 259 -179 418 0 209 127 408 320 500 47 23 108 45
135 51 75 15 220 6 296 -18z"/>
<path d="M11365 3674 c-255 -46 -485 -171 -669 -365 -154 -163 -257 -358 -307
-584 -21 -96 -22 -124 -26 -758 l-5 -657 326 0 326 0 0 618 c0 687 -1 675 68
806 77 147 224 257 392 292 268 57 550 -117 642 -396 20 -62 22 -89 28 -675 4
-335 11 -618 15 -627 7 -17 32 -18 326 -18 l319 0 0 649 c0 524 -3 664 -15
732 -87 499 -487 898 -989 984 -110 19 -323 18 -431 -1z"/>
<path d="M6227 3656 c-339 -60 -593 -250 -675 -506 -32 -101 -40 -249 -18
-344 44 -186 168 -328 381 -433 133 -67 247 -105 608 -204 264 -72 288 -82
327 -125 44 -50 41 -95 -8 -144 -59 -60 -124 -75 -312 -75 -135 0 -169 4 -263
28 -136 34 -289 93 -391 152 -44 25 -83 44 -87 43 -11 -4 -309 -416 -309 -427
0 -5 39 -35 88 -67 327 -220 780 -342 1125 -305 356 39 634 200 746 433 156
325 79 635 -203 823 -145 96 -301 157 -681 266 -346 100 -405 129 -405 201 0
43 53 92 121 113 72 22 265 31 370 16 119 -17 273 -56 373 -95 l87 -34 37 51
c21 29 89 123 152 211 l114 159 -29 23 c-99 80 -373 187 -575 224 -148 28
-457 36 -573 16z"/>
<path d="M2790 3001 c0 -672 3 -729 46 -880 138 -485 572 -824 1085 -848 143
-7 218 4 349 49 103 36 178 76 244 131 l49 40 -8 -79 c-40 -442 -239 -711
-569 -769 -49 -8 -112 -15 -140 -15 -155 0 -351 63 -546 175 -69 40 -84 45
-94 34 -29 -31 -317 -401 -322 -413 -8 -21 147 -126 303 -205 339 -170 709
-212 1068 -121 484 123 768 454 879 1026 59 306 66 469 66 1567 l0 947 -320 0
-319 0 -3 -642 -3 -643 -26 -66 c-39 -101 -76 -158 -148 -229 -216 -213 -555
-213 -772 0 -72 71 -109 128 -148 229 l-26 66 -3 643 -3 642 -319 0 -320 0 0
-639z"/>
</g>
</svg>
